<?xml version="1.0" encoding="UTF-8" standalone="no"?>
<!-- Generator: Adobe Illustrator 19.0.0, SVG Export Plug-In . SVG Version: 6.00 Build 0)  -->

<svg
   version="1.1"
   id="Layer_1"
   x="0px"
   y="0px"
   viewBox="0 0 391.20001 521.59998"
   xml:space="preserve"
   sodipodi:docname="SheppLogan_Phantom.svg"
   inkscape:version="1.3.2 (091e20e, 2023-11-25, custom)"
   width="391.20001"
   height="521.59998"
   xmlns:inkscape="http://www.inkscape.org/namespaces/inkscape"
   xmlns:sodipodi="http://sodipodi.sourceforge.net/DTD/sodipodi-0.dtd"
   xmlns="http://www.w3.org/2000/svg"
   xmlns:svg="http://www.w3.org/2000/svg"><defs
   id="defs1" /><sodipodi:namedview
   id="namedview1"
   pagecolor="#505050"
   bordercolor="#ffffff"
   borderopacity="1"
   inkscape:showpageshadow="0"
   inkscape:pageopacity="0"
   inkscape:pagecheckerboard="1"
   inkscape:deskcolor="#505050"
   inkscape:zoom="1.7756184"
   inkscape:cx="194.86169"
   inkscape:cy="261.03582"
   inkscape:window-width="2256"
   inkscape:window-height="1415"
   inkscape:window-x="2391"
   inkscape:window-y="95"
   inkscape:window-maximized="1"
   inkscape:current-layer="Layer_1" />
<style
   type="text/css"
   id="style1">
	.st0{fill:#FFFFFF;}
	.st1{fill:#343434;}
	.st2{fill:#4D4D4D;}
	.st3{fill:#1A1A1A;}
	.st4{fill:#676767;}
</style>

<g
   id="XMLID_7_"
   transform="translate(-87.699982,-22.800018)">
	<ellipse
   id="XMLID_27_"
   class="st0"
   cx="283.29999"
   cy="283.60001"
   rx="195.60001"
   ry="260.79999" />
	<ellipse
   id="XMLID_26_"
   class="st1"
   cx="283.29999"
   cy="288.79999"
   rx="187.8"
   ry="247.7" />
	
		<ellipse
   id="XMLID_25_"
   transform="matrix(0.9511,0.309,-0.309,0.9511,104.5447,-92.9501)"
   cx="345.70001"
   cy="283.60001"
   rx="31.200001"
   ry="87.900002" />
	<path
   id="XMLID_28_"
   class="st2"
   d="m 342.9,184.3 c 0,-39.1 -26.7,-70.9 -59.5,-70.9 -32.8,0 -59.5,31.7 -59.5,70.9 0,3.1 0.2,6.1 0.5,9 11.3,13.2 22.4,31.8 31.5,53.8 4.5,2.8 9.4,5 14.6,6.3 0.8,-6.4 6.3,-11.4 12.9,-11.4 6.6,0 12.1,4.9 12.9,11.3 26.6,-6.8 46.6,-35.1 46.6,-69 z" />
	<path
   id="XMLID_33_"
   class="st2"
   d="m 270.4,253.5 c -0.1,0.6 -0.1,1.1 -0.1,1.7 0,7.2 5.8,13 13,13 7.2,0 13,-5.8 13,-13 0,-0.6 0,-1.1 -0.1,-1.7 -4.2,1.1 -8.5,1.7 -12.9,1.7 -4.4,0 -8.7,-0.6 -12.9,-1.7 z" />
	<path
   id="XMLID_31_"
   d="m 270.3,311.9 c 0,-3 1,-5.8 2.7,-8 -2.1,-11.1 -5.1,-22.6 -8.9,-34.4 -2.5,-7.8 -5.3,-15.2 -8.3,-22.3 -16.9,-10.5 -29,-30.4 -31.5,-53.8 -13.7,-16.1 -27.8,-24.1 -39.2,-20.3 -23.8,7.7 -27.1,63.5 -7.2,124.6 19.8,61 55.2,104.3 79.1,96.5 16.6,-5.4 23.2,-34 19,-71.5 -3.5,-2.5 -5.7,-6.4 -5.7,-10.8 z" />
	<path
   id="XMLID_32_"
   class="st2"
   d="m 283.3,298.9 c -4.2,0 -7.9,2 -10.3,5.1 1.2,6.4 2.2,12.6 2.9,18.6 2.1,1.5 4.7,2.4 7.5,2.4 7.2,0 13,-5.8 13,-13 0,-7.3 -5.9,-13.1 -13.1,-13.1 z" />
	<ellipse
   id="XMLID_18_"
   class="st2"
   cx="260.70001"
   cy="455.10001"
   rx="13"
   ry="6.5" />
	<circle
   id="XMLID_12_"
   class="st2"
   cx="283.29999"
   cy="455.10001"
   r="6.5" />
	<ellipse
   id="XMLID_11_"
   class="st2"
   cx="300.29999"
   cy="455.10001"
   rx="6.5"
   ry="13" />
	<path
   id="XMLID_6_"
   class="st3"
   d="m 255.9,247.2 c -9.2,-22 -20.3,-40.6 -31.5,-53.8 2.4,23.4 14.5,43.3 31.5,53.8 z" />
	<path
   id="XMLID_30_"
   class="st3"
   d="m 273,303.9 c -1.7,2.2 -2.7,5 -2.7,8 0,4.4 2.2,8.3 5.6,10.7 -0.7,-6 -1.6,-12.2 -2.9,-18.7 z" />
	<path
   id="XMLID_20_"
   class="st4"
   d="m 283.3,255.2 c 4.4,0 8.8,-0.6 12.9,-1.7 -0.8,-6.4 -6.3,-11.3 -12.9,-11.3 -6.6,0 -12.1,5 -12.9,11.4 4.2,1 8.5,1.6 12.9,1.6 z" />
</g>
</svg>
