<?xml version="1.0" encoding="UTF-8" standalone="no"?>
<!-- Created with Inkscape (http://www.inkscape.org/) -->

<svg
   width="28.444349mm"
   height="54.545334mm"
   viewBox="0 0 28.444349 54.545334"
   version="1.1"
   id="svg1"
   sodipodi:docname="source.svg"
   inkscape:version="1.3.2 (091e20e, 2023-11-25, custom)"
   xmlns:inkscape="http://www.inkscape.org/namespaces/inkscape"
   xmlns:sodipodi="http://sodipodi.sourceforge.net/DTD/sodipodi-0.dtd"
   xmlns:xlink="http://www.w3.org/1999/xlink"
   xmlns="http://www.w3.org/2000/svg"
   xmlns:svg="http://www.w3.org/2000/svg">
  <sodipodi:namedview
     id="namedview1"
     pagecolor="#505050"
     bordercolor="#ffffff"
     borderopacity="1"
     inkscape:showpageshadow="0"
     inkscape:pageopacity="0"
     inkscape:pagecheckerboard="1"
     inkscape:deskcolor="#505050"
     inkscape:document-units="mm"
     showgrid="true"
     inkscape:zoom="2.920347"
     inkscape:cx="-89.715365"
     inkscape:cy="91.598702"
     inkscape:window-width="2400"
     inkscape:window-height="1261"
     inkscape:window-x="-9"
     inkscape:window-y="-9"
     inkscape:window-maximized="1"
     inkscape:current-layer="layer1"
     showguides="false">
    <inkscape:grid
       id="grid28"
       units="mm"
       originx="-85.589309"
       originy="-9.7377043"
       spacingx="0.99999998"
       spacingy="1"
       empcolor="#0099e5"
       empopacity="0.30196078"
       color="#0099e5"
       opacity="0.14901961"
       empspacing="5"
       dotted="false"
       gridanglex="30"
       gridanglez="30"
       visible="true" />
  </sodipodi:namedview>
  <defs
     id="defs1">
    <linearGradient
       id="linearGradient33"
       inkscape:collect="always">
      <stop
         style="stop-color:#333333;stop-opacity:1;"
         offset="0"
         id="stop34" />
      <stop
         style="stop-color:#737373;stop-opacity:0.49803922;"
         offset="0.80503482"
         id="stop36" />
      <stop
         style="stop-color:#595959;stop-opacity:0.37254903;"
         offset="0.99989998"
         id="stop38" />
      <stop
         style="stop-color:#333333;stop-opacity:0.24705882;"
         offset="1"
         id="stop37" />
    </linearGradient>
    <linearGradient
       id="swatch6">
      <stop
         style="stop-color:#000000;stop-opacity:1;"
         offset="0"
         id="stop6" />
    </linearGradient>
    <linearGradient
       inkscape:collect="always"
       xlink:href="#linearGradient33"
       id="linearGradient35"
       x1="113.88416"
       y1="39.954578"
       x2="85.386185"
       y2="39.697582"
       gradientUnits="userSpaceOnUse"
       spreadMethod="reflect"
       gradientTransform="matrix(1,0,0,0.7796899,0,2.1453148)" />
  </defs>
  <g
     inkscape:label="Layer 1"
     inkscape:groupmode="layer"
     id="layer1"
     transform="translate(-85.58931,-9.7377043)">
    <rect
       style="fill:url(#linearGradient35);fill-opacity:1;fill-rule:nonzero;stroke:none;stroke-width:7.14435;stroke-linecap:round;stroke-dasharray:none"
       id="rect1"
       width="28.444349"
       height="54.545334"
       x="85.58931"
       y="9.7377043" />
    <path
       id="path45-5"
       style="fill:#000000;fill-opacity:1;fill-rule:nonzero;stroke:#000000;stroke-width:0.334999;stroke-linecap:round;stroke-dasharray:none;stroke-opacity:1"
       d="m 95.346819,17.237238 3.400547,6.368506 a 2.6777964,2.8489308 0 0 1 2.674644,0.01445 l 3.48081,-6.311941 a 10.166869,9.5561908 89.996304 0 0 -9.556001,-0.071 z"
       inkscape:transform-center-x="-0.087160087"
       inkscape:transform-center-y="-7.2974656" />
    <path
       id="path45-5-3"
       style="fill:#000000;fill-opacity:1;fill-rule:nonzero;stroke:#000000;stroke-width:0.335386;stroke-linecap:round;stroke-dasharray:none;stroke-opacity:1"
       d="m 94.51064,36.443749 3.381113,-6.378845 a 2.6777963,2.8489308 56.026411 0 1 -1.482609,-2.226106 l -7.179571,0.640569 a 9.5561911,10.166869 56.022738 0 0 5.281066,7.964383 z"
       inkscape:transform-center-x="6.4769754"
       inkscape:transform-center-y="5.078216" />
    <path
       id="path45-5-5"
       style="fill:#000000;fill-opacity:1;fill-rule:nonzero;stroke:#000000;stroke-width:0.335386;stroke-linecap:round;stroke-dasharray:none;stroke-opacity:1"
       d="m 110.82387,28.547735 -7.18919,-0.661487 a 2.8489307,2.6777966 33.35766 0 1 -1.4828,2.226023 l 3.35816,6.37806 a 10.166869,9.5561911 33.353969 0 0 5.31383,-7.942596 z"
       inkscape:transform-center-x="-6.4501875"
       inkscape:transform-center-y="5.1252315" />
    <path
       id="path38-5"
       style="fill:#000000;fill-opacity:1;fill-rule:nonzero;stroke:#000000;stroke-width:0.0163275;stroke-linecap:round;stroke-dasharray:none;stroke-opacity:1"
       d="m 100.05707,25.696733 a 1.2582168,1.3559834 0 0 0 -1.258239,1.356011 1.2582168,1.3559834 0 0 0 1.258239,1.356018 1.2582168,1.3559834 0 0 0 1.25818,-1.356018 1.2582168,1.3559834 0 0 0 -1.25818,-1.356011 z" />
    <circle
       style="fill:none;stroke:#000000;stroke-width:0.550686;stroke-linecap:round;stroke-linejoin:round;stroke-dasharray:none"
       id="path1"
       cx="100.02649"
       cy="27.067877"
       r="12.224657" />
    <path
       style="fill:#e9f036;fill-opacity:1;stroke:#e9f036;stroke-width:0.0914554;stroke-linecap:round;stroke-linejoin:round;stroke-dasharray:none;stroke-opacity:1"
       d="m 99.356963,38.975455 c -3.740162,-0.195976 -7.224947,-2.20888 -9.307364,-5.376171 -1.282397,-1.950484 -1.942132,-4.168957 -1.942132,-6.530749 0,-2.751949 0.900037,-5.314557 2.627675,-7.481576 0.373305,-0.468242 1.320282,-1.41676 1.789075,-1.791977 1.807634,-1.446817 3.876458,-2.312343 6.172121,-2.582199 0.629704,-0.074 1.932582,-0.08416 2.510422,-0.01953 3.39842,0.380127 6.32815,2.031904 8.34126,4.702792 1.31902,1.750051 2.08222,3.678085 2.34604,5.926748 0.0626,0.534753 0.0626,1.956746 0,2.491499 -0.38083,3.246006 -1.91793,6.051368 -4.42415,8.074364 -0.8351,0.674097 -2.26994,1.491992 -3.24317,1.848666 -1.57381,0.576795 -3.21154,0.825031 -4.869777,0.738139 z m 6.581697,-2.490295 c 1.9407,-0.975501 3.50674,-2.65249 4.34467,-4.652508 0.41625,-0.993537 0.62687,-1.914881 0.72013,-3.150304 0.0181,-0.244525 0.0128,-0.311437 -0.0263,-0.311436 -0.0276,1e-6 -1.72143,-0.153947 -3.76451,-0.342105 -3.01457,-0.27763 -3.72066,-0.332769 -3.7461,-0.292564 -0.0169,0.02724 -0.0319,0.120905 -0.0323,0.208123 -8.6e-4,0.258124 -0.0749,0.539248 -0.2264,0.86067 -0.22331,0.473834 -0.57973,0.843086 -1.04814,1.085805 -0.12967,0.06718 -0.23586,0.138383 -0.23592,0.15817 -2.5e-4,0.06563 3.4906,6.664647 3.52557,6.664647 0.0187,0 0.23891,-0.102825 0.48895,-0.228498 z m -9.557495,-3.167497 c 0.972709,-1.83443 1.764141,-3.339146 1.758743,-3.343815 -0.0056,-0.0047 -0.112626,-0.05998 -0.238278,-0.122982 -0.758145,-0.379946 -1.297634,-1.209612 -1.299857,-1.999017 -5.3e-4,-0.191458 -0.0042,-0.198187 -0.10558,-0.198187 -0.05779,0 -1.721262,0.144391 -3.696663,0.320873 -1.975401,0.176481 -3.626891,0.320876 -3.669976,0.320876 -0.07157,0 -0.07828,0.02198 -0.07801,0.254813 6.6e-4,0.551038 0.145334,1.463139 0.345768,2.180061 0.587825,2.102542 1.940019,3.956214 3.778991,5.180466 0.389125,0.259051 1.342141,0.770666 1.401937,0.752616 0.01888,-0.0057 0.830234,-1.511276 1.802942,-3.345704 z m 3.968205,-4.927394 c 1.20546,-0.31397 1.33778,-2.087688 0.19488,-2.610943 -0.22367,-0.102386 -0.573247,-0.124773 -0.837437,-0.05361 -0.358601,0.09656 -0.68998,0.420828 -0.840604,0.822561 -0.116789,0.311501 -0.09741,0.808643 0.04326,1.10994 0.180143,0.385808 0.50169,0.655507 0.890894,0.747234 0.210597,0.04961 0.310887,0.04685 0.548997,-0.01515 z m 2.97062,-7.82078 1.82495,-3.309171 -0.0867,-0.07015 c -0.0476,-0.03858 -0.25003,-0.161628 -0.44966,-0.273401 -2.84104,-1.59061 -6.294511,-1.578133 -9.140043,0.03301 l -0.379605,0.214936 0.148236,0.270921 c 0.08154,0.149004 0.882417,1.646907 1.779748,3.328669 0.897331,1.681762 1.63824,3.065032 1.646459,3.073934 0.0085,0.0089 0.154893,-0.05481 0.325933,-0.141633 0.419133,-0.212706 0.744205,-0.283379 1.198102,-0.260477 0.41165,0.02077 0.75883,0.122544 1.06382,0.311862 0.11044,0.06855 0.21048,0.126039 0.22231,0.127689 0.0122,0.0017 0.84268,-1.486128 1.8464,-3.306174 z"
       id="path2" />
  </g>
</svg>
